<svg xmlns="http://www.w3.org/2000/svg" width="1920" height="1080"><path d="M532,1234L103,1242L629,1246Z" fill="#e9821c" stroke="#e9821c" stroke-width="1.51"/><path d="M-37,-173L425,-173L1067,-174Z" fill="#f5b014" stroke="#f5b014" stroke-width="1.51"/><path d="M425,-173L772,-164L1067,-174Z" fill="#f49f12" stroke="#f49f12" stroke-width="1.51"/><path d="M809,1231L629,1246L1093,1223Z" fill="#e6731a" stroke="#e6731a" stroke-width="1.51"/><path d="M1067,-174L1388,-121L1628,-155Z" fill="#f6b815" stroke="#f6b815" stroke-width="1.51"/><path d="M1455,1214L1093,1223L1724,1222Z" fill="#e9801b" stroke="#e9801b" stroke-width="1.51"/><path d="M1067,-174L1628,-155L1809,-156Z" fill="#f5ab13" stroke="#f5ab13" stroke-width="1.51"/><path d="M1628,-155L1757,-149L1809,-156Z" fill="#f19614" stroke="#f19614" stroke-width="1.51"/><path d="M1724,1222L1093,1223L1910,1232Z" fill="#e6711a" stroke="#e6711a" stroke-width="1.51"/><path d="M1093,1223L629,1246L1910,1232Z" fill="#eb8f1d" stroke="#eb8f1d" stroke-width="1.51"/><path d="M2006,73L1990,139L2025,210Z" fill="#ed951d" stroke="#ed951d" stroke-width="1.51"/><path d="M2006,73L2025,210L2027,-33Z" fill="#ec941d" stroke="#ec941d" stroke-width="1.51"/><path d="M1997,-94L2027,-33L2054,-137Z" fill="#e97c1a" stroke="#e97c1a" stroke-width="1.51"/><path d="M1933,840L1953,1017L2070,1001Z" fill="#e87618" stroke="#e87618" stroke-width="1.51"/><path d="M2054,-137L2027,-33L2075,327Z" fill="#eb8c1c" stroke="#eb8c1c" stroke-width="1.51"/><path d="M2027,-33L2025,210L2075,327Z" fill="#eb8d1c" stroke="#eb8d1c" stroke-width="1.51"/><path d="M1933,840L2070,1001L2099,882Z" fill="#e8771a" stroke="#e8771a" stroke-width="1.51"/><path d="M1935,755L1933,840L2099,882Z" fill="#eb881a" stroke="#eb881a" stroke-width="1.51"/><path d="M2072,616L1955,664L2100,714Z" fill="#ec931d" stroke="#ec931d" stroke-width="1.51"/><path d="M1935,755L2099,882L2100,714Z" fill="#ea881c" stroke="#ea881c" stroke-width="1.51"/><path d="M1992,469L2072,616L2104,487Z" fill="#e97e1b" stroke="#e97e1b" stroke-width="1.51"/><path d="M2054,395L1992,469L2104,487Z" fill="#e7741a" stroke="#e7741a" stroke-width="1.51"/><path d="M2075,327L2054,395L2104,487Z" fill="#e46919" stroke="#e46919" stroke-width="1.51"/><path d="M2054,-137L2075,327L2104,487Z" fill="#e8811b" stroke="#e8811b" stroke-width="1.51"/><path d="M2072,616L2100,714L2104,487Z" fill="#e9851c" stroke="#e9851c" stroke-width="1.51"/><path d="M2059,1044L1906,1068L2104,1187Z" fill="#df531a" stroke="#df531a" stroke-width="1.51"/><path d="M1906,1068L1910,1232L2104,1187Z" fill="#dd4c1a" stroke="#dd4c1a" stroke-width="1.51"/><path d="M2070,1001L2059,1044L2104,1187Z" fill="#dd501a" stroke="#dd501a" stroke-width="1.51"/><path d="M2099,882L2070,1001L2104,1187Z" fill="#e05b1a" stroke="#e05b1a" stroke-width="1.51"/><path d="M2104,487L2100,714L2104,1187Z" fill="#e87f1c" stroke="#e87f1c" stroke-width="1.51"/><path d="M2100,714L2099,882L2104,1187Z" fill="#e56c1a" stroke="#e56c1a" stroke-width="1.51"/><path d="M1955,664L1935,755L2100,714Z" fill="#ed971c" stroke="#ed971c" stroke-width="1.51"/><path d="M1809,-156L1997,-94L2054,-137Z" fill="#eb7e18" stroke="#eb7e18" stroke-width="1.51"/><path d="M1953,1017L1906,1068L2059,1044Z" fill="#e46719" stroke="#e46719" stroke-width="1.51"/><path d="M1992,469L1904,545L2072,616Z" fill="#eb891b" stroke="#eb891b" stroke-width="1.51"/><path d="M1904,545L1955,664L2072,616Z" fill="#ed931c" stroke="#ed931c" stroke-width="1.51"/><path d="M1934,298L2054,395L2075,327Z" fill="#e8781a" stroke="#e8781a" stroke-width="1.51"/><path d="M2025,210L1934,298L2075,327Z" fill="#ea821a" stroke="#ea821a" stroke-width="1.51"/><path d="M1953,1017L2059,1044L2070,1001Z" fill="#e4641a" stroke="#e4641a" stroke-width="1.51"/><path d="M1934,298L1992,469L2054,395Z" fill="#e87518" stroke="#e87518" stroke-width="1.51"/><path d="M1990,139L1914,219L2025,210Z" fill="#ed921b" stroke="#ed921b" stroke-width="1.51"/><path d="M1914,219L1934,298L2025,210Z" fill="#ec8d1a" stroke="#ec8d1a" stroke-width="1.51"/><path d="M1997,-94L1894,2L2027,-33Z" fill="#ec8819" stroke="#ec8819" stroke-width="1.51"/><path d="M1894,2L1928,37L2027,-33Z" fill="#ed911a" stroke="#ed911a" stroke-width="1.51"/><path d="M1928,37L2006,73L2027,-33Z" fill="#ed901c" stroke="#ed901c" stroke-width="1.51"/><path d="M1934,298L1812,463L1992,469Z" fill="#eb7f17" stroke="#eb7f17" stroke-width="1.51"/><path d="M1928,37L1990,139L2006,73Z" fill="#ee9a1c" stroke="#ee9a1c" stroke-width="1.51"/><path d="M1809,-156L1894,2L1997,-94Z" fill="#ed8c19" stroke="#ed8c19" stroke-width="1.51"/><path d="M1904,545L1893,657L1955,664Z" fill="#ef9c1b" stroke="#ef9c1b" stroke-width="1.51"/><path d="M1812,463L1904,545L1992,469Z" fill="#ed8c19" stroke="#ed8c19" stroke-width="1.51"/><path d="M1928,37L1914,219L1990,139Z" fill="#ef9e1b" stroke="#ef9e1b" stroke-width="1.51"/><path d="M1906,1068L1812,1147L1910,1232Z" fill="#e25d1a" stroke="#e25d1a" stroke-width="1.51"/><path d="M1799,149L1914,219L1928,37Z" fill="#f0a51a" stroke="#f0a51a" stroke-width="1.51"/><path d="M1805,829L1792,1009L1933,840Z" fill="#ee9017" stroke="#ee9017" stroke-width="1.51"/><path d="M1813,287L1812,463L1934,298Z" fill="#ee8b17" stroke="#ee8b17" stroke-width="1.51"/><path d="M1933,840L1792,1009L1953,1017Z" fill="#ec8217" stroke="#ec8217" stroke-width="1.51"/><path d="M1792,1009L1906,1068L1953,1017Z" fill="#e87418" stroke="#e87418" stroke-width="1.51"/><path d="M1877,730L1935,755L1955,664Z" fill="#ef9f1b" stroke="#ef9f1b" stroke-width="1.51"/><path d="M1893,657L1877,730L1955,664Z" fill="#f0a51c" stroke="#f0a51c" stroke-width="1.51"/><path d="M1792,1009L1820,1056L1906,1068Z" fill="#e97718" stroke="#e97718" stroke-width="1.51"/><path d="M1894,2L1766,101L1928,37Z" fill="#f1a11a" stroke="#f1a11a" stroke-width="1.51"/><path d="M1766,101L1799,149L1928,37Z" fill="#f2ac1a" stroke="#f2ac1a" stroke-width="1.51"/><path d="M1877,730L1805,829L1933,840Z" fill="#ef9a19" stroke="#ef9a19" stroke-width="1.51"/><path d="M1914,219L1813,287L1934,298Z" fill="#ee9218" stroke="#ee9218" stroke-width="1.51"/><path d="M1877,730L1933,840L1935,755Z" fill="#ef981a" stroke="#ef981a" stroke-width="1.51"/><path d="M1809,-156L1745,-11L1894,2Z" fill="#f09917" stroke="#f09917" stroke-width="1.51"/><path d="M1764,598L1893,657L1904,545Z" fill="#f0a019" stroke="#f0a019" stroke-width="1.51"/><path d="M1798,527L1764,598L1904,545Z" fill="#f19e18" stroke="#f19e18" stroke-width="1.51"/><path d="M1812,463L1798,527L1904,545Z" fill="#ef9618" stroke="#ef9618" stroke-width="1.51"/><path d="M1820,1056L1812,1147L1906,1068Z" fill="#e66d19" stroke="#e66d19" stroke-width="1.51"/><path d="M1785,254L1813,287L1914,219Z" fill="#f09a18" stroke="#f09a18" stroke-width="1.51"/><path d="M1799,149L1785,254L1914,219Z" fill="#f1a118" stroke="#f1a118" stroke-width="1.51"/><path d="M1812,1147L1724,1222L1910,1232Z" fill="#e0591a" stroke="#e0591a" stroke-width="1.51"/><path d="M1751,725L1877,730L1893,657Z" fill="#f2aa1a" stroke="#f2aa1a" stroke-width="1.51"/><path d="M1745,-11L1766,101L1894,2Z" fill="#f2a719" stroke="#f2a719" stroke-width="1.51"/><path d="M1764,598L1751,725L1893,657Z" fill="#f3ae1a" stroke="#f3ae1a" stroke-width="1.51"/><path d="M425,-173L465,-167L772,-164Z" fill="#f5ac13" stroke="#f5ac13" stroke-width="1.51"/><path d="M1707,933L1792,1009L1805,829Z" fill="#f09515" stroke="#f09515" stroke-width="1.51"/><path d="M1751,725L1805,829L1877,730Z" fill="#f2a619" stroke="#f2a619" stroke-width="1.51"/><path d="M1574,1179L1455,1214L1724,1222Z" fill="#e77419" stroke="#e77419" stroke-width="1.51"/><path d="M1755,244L1785,254L1799,149Z" fill="#f2a618" stroke="#f2a618" stroke-width="1.51"/><path d="M1691,860L1707,933L1805,829Z" fill="#f29f16" stroke="#f29f16" stroke-width="1.51"/><path d="M1757,-149L1745,-11L1809,-156Z" fill="#f09816" stroke="#f09816" stroke-width="1.51"/><path d="M1690,316L1699,417L1813,287Z" fill="#f29a15" stroke="#f29a15" stroke-width="1.51"/><path d="M1699,417L1812,463L1813,287Z" fill="#ef8f15" stroke="#ef8f15" stroke-width="1.51"/><path d="M1702,1063L1812,1147L1820,1056Z" fill="#e97618" stroke="#e97618" stroke-width="1.51"/><path d="M1792,1009L1702,1063L1820,1056Z" fill="#eb8017" stroke="#eb8017" stroke-width="1.51"/><path d="M1699,417L1798,527L1812,463Z" fill="#f09816" stroke="#f09816" stroke-width="1.51"/><path d="M1785,254L1690,316L1813,287Z" fill="#f29e16" stroke="#f29e16" stroke-width="1.51"/><path d="M1755,244L1690,316L1785,254Z" fill="#f3a216" stroke="#f3a216" stroke-width="1.51"/><path d="M1702,1063L1724,1222L1812,1147Z" fill="#e66f19" stroke="#e66f19" stroke-width="1.51"/><path d="M1751,725L1691,860L1805,829Z" fill="#f3a717" stroke="#f3a717" stroke-width="1.51"/><path d="M1718,568L1764,598L1798,527Z" fill="#f2a617" stroke="#f2a617" stroke-width="1.51"/><path d="M1699,417L1718,568L1798,527Z" fill="#f2a116" stroke="#f2a116" stroke-width="1.51"/><path d="M1699,417L1648,483L1718,568Z" fill="#f4a514" stroke="#f4a514" stroke-width="1.51"/><path d="M1766,101L1755,244L1799,149Z" fill="#f3ad18" stroke="#f3ad18" stroke-width="1.51"/><path d="M1707,933L1702,1063L1792,1009Z" fill="#ef8d15" stroke="#ef8d15" stroke-width="1.51"/><path d="M1645,602L1751,725L1764,598Z" fill="#f5b517" stroke="#f5b517" stroke-width="1.51"/><path d="M1607,212L1755,244L1766,101Z" fill="#f4b217" stroke="#f4b217" stroke-width="1.51"/><path d="M1647,724L1691,860L1751,725Z" fill="#f5b216" stroke="#f5b216" stroke-width="1.51"/><path d="M1645,602L1647,724L1751,725Z" fill="#f6bf17" stroke="#f6bf17" stroke-width="1.51"/><path d="M1628,-155L1745,-11L1757,-149Z" fill="#f29f15" stroke="#f29f15" stroke-width="1.51"/><path d="M1718,568L1645,602L1764,598Z" fill="#f4af16" stroke="#f4af16" stroke-width="1.51"/><path d="M1571,150L1607,212L1766,101Z" fill="#f6bd16" stroke="#f6bd16" stroke-width="1.51"/><path d="M1745,-11L1584,-21L1766,101Z" fill="#f5b116" stroke="#f5b116" stroke-width="1.51"/><path d="M1584,-21L1571,150L1766,101Z" fill="#f6be16" stroke="#f6be16" stroke-width="1.51"/><path d="M1648,483L1652,547L1718,568Z" fill="#f5ac14" stroke="#f5ac14" stroke-width="1.51"/><path d="M1702,1063L1581,1123L1724,1222Z" fill="#ea7a18" stroke="#ea7a18" stroke-width="1.51"/><path d="M1628,-155L1584,-21L1745,-11Z" fill="#f5ab13" stroke="#f5ab13" stroke-width="1.51"/><path d="M1607,212L1690,316L1755,244Z" fill="#f4ab15" stroke="#f4ab15" stroke-width="1.51"/><path d="M1581,1123L1574,1179L1724,1222Z" fill="#e87618" stroke="#e87618" stroke-width="1.51"/><path d="M1388,-121L1562,-120L1628,-155Z" fill="#f5ad13" stroke="#f5ad13" stroke-width="1.51"/><path d="M1647,724L1616,863L1691,860Z" fill="#f5b114" stroke="#f5b114" stroke-width="1.51"/><path d="M1690,316L1645,352L1699,417Z" fill="#f39e13" stroke="#f39e13" stroke-width="1.51"/><path d="M1596,950L1702,1063L1707,933Z" fill="#f29813" stroke="#f29813" stroke-width="1.51"/><path d="M1652,547L1645,602L1718,568Z" fill="#f5b115" stroke="#f5b115" stroke-width="1.51"/><path d="M1691,860L1616,863L1707,933Z" fill="#f4a513" stroke="#f4a513" stroke-width="1.51"/><path d="M1616,863L1596,950L1707,933Z" fill="#f4a413" stroke="#f4a413" stroke-width="1.51"/><path d="M1596,950L1538,1083L1702,1063Z" fill="#f09415" stroke="#f09415" stroke-width="1.51"/><path d="M1538,1083L1581,1123L1702,1063Z" fill="#ed8917" stroke="#ed8917" stroke-width="1.51"/><path d="M1645,352L1648,483L1699,417Z" fill="#f39d13" stroke="#f39d13" stroke-width="1.51"/><path d="M1526,1015L1538,1083L1596,950Z" fill="#f29c15" stroke="#f29c15" stroke-width="1.51"/><path d="M1562,-120L1584,-21L1628,-155Z" fill="#f5ab13" stroke="#f5ab13" stroke-width="1.51"/><path d="M1607,212L1645,352L1690,316Z" fill="#f5ab13" stroke="#f5ab13" stroke-width="1.51"/><path d="M1525,121L1571,150L1584,-21Z" fill="#f7c617" stroke="#f7c617" stroke-width="1.51"/><path d="M1502,790L1527,854L1616,863Z" fill="#f6b615" stroke="#f6b615" stroke-width="1.51"/><path d="M1607,212L1552,244L1645,352Z" fill="#f6b214" stroke="#f6b214" stroke-width="1.51"/><path d="M1502,790L1616,863L1647,724Z" fill="#f6b915" stroke="#f6b915" stroke-width="1.51"/><path d="M1645,602L1548,632L1647,724Z" fill="#f7c117" stroke="#f7c117" stroke-width="1.51"/><path d="M1645,352L1492,457L1648,483Z" fill="#f4a613" stroke="#f4a613" stroke-width="1.51"/><path d="M1459,543L1548,632L1652,547Z" fill="#f6bc16" stroke="#f6bc16" stroke-width="1.51"/><path d="M1492,457L1459,543L1652,547Z" fill="#f6b615" stroke="#f6b615" stroke-width="1.51"/><path d="M1548,632L1645,602L1652,547Z" fill="#f6b915" stroke="#f6b915" stroke-width="1.51"/><path d="M1648,483L1492,457L1652,547Z" fill="#f5ae14" stroke="#f5ae14" stroke-width="1.51"/><path d="M1548,632L1502,790L1647,724Z" fill="#f7c517" stroke="#f7c517" stroke-width="1.51"/><path d="M1552,244L1492,457L1645,352Z" fill="#f5aa14" stroke="#f5aa14" stroke-width="1.51"/><path d="M1462,268L1492,457L1552,244Z" fill="#f6b314" stroke="#f6b314" stroke-width="1.51"/><path d="M1527,854L1596,950L1616,863Z" fill="#f5ad13" stroke="#f5ad13" stroke-width="1.51"/><path d="M1344,1170L1093,1223L1455,1214Z" fill="#eb8e1c" stroke="#eb8e1c" stroke-width="1.51"/><path d="M1494,-42L1525,121L1584,-21Z" fill="#f7c016" stroke="#f7c016" stroke-width="1.51"/><path d="M1571,150L1552,244L1607,212Z" fill="#f7bc15" stroke="#f7bc15" stroke-width="1.51"/><path d="M1445,683L1502,790L1548,632Z" fill="#f7cc18" stroke="#f7cc18" stroke-width="1.51"/><path d="M1562,-120L1494,-42L1584,-21Z" fill="#f6b414" stroke="#f6b414" stroke-width="1.51"/><path d="M1527,854L1526,1015L1596,950Z" fill="#f5a913" stroke="#f5a913" stroke-width="1.51"/><path d="M1538,1083L1574,1179L1581,1123Z" fill="#ec8518" stroke="#ec8518" stroke-width="1.51"/><path d="M1462,268L1451,450L1492,457Z" fill="#f5ac13" stroke="#f5ac13" stroke-width="1.51"/><path d="M1525,121L1552,244L1571,150Z" fill="#f7c217" stroke="#f7c217" stroke-width="1.51"/><path d="M1525,121L1441,235L1552,244Z" fill="#f7c216" stroke="#f7c216" stroke-width="1.51"/><path d="M1538,1083L1441,1180L1574,1179Z" fill="#ec8518" stroke="#ec8518" stroke-width="1.51"/><path d="M1441,1180L1455,1214L1574,1179Z" fill="#e9801a" stroke="#e9801a" stroke-width="1.51"/><path d="M1067,-174L1296,-97L1388,-121Z" fill="#f7c316" stroke="#f7c316" stroke-width="1.51"/><path d="M1494,-42L1395,5L1525,121Z" fill="#f7c617" stroke="#f7c617" stroke-width="1.51"/><path d="M1396,988L1526,1015L1527,854Z" fill="#f5ad13" stroke="#f5ad13" stroke-width="1.51"/><path d="M1388,-121L1494,-42L1562,-120Z" fill="#f6b514" stroke="#f6b514" stroke-width="1.51"/><path d="M1441,235L1462,268L1552,244Z" fill="#f7be16" stroke="#f7be16" stroke-width="1.51"/><path d="M1459,543L1445,683L1548,632Z" fill="#f7c817" stroke="#f7c817" stroke-width="1.51"/><path d="M1183,1173L1093,1223L1344,1170Z" fill="#ed981d" stroke="#ed981d" stroke-width="1.51"/><path d="M1355,893L1396,988L1527,854Z" fill="#f6b615" stroke="#f6b615" stroke-width="1.51"/><path d="M1526,1015L1417,1058L1538,1083Z" fill="#f19a16" stroke="#f19a16" stroke-width="1.51"/><path d="M1417,1058L1441,1180L1538,1083Z" fill="#ee9218" stroke="#ee9218" stroke-width="1.51"/><path d="M1380,281L1451,450L1462,268Z" fill="#f6b715" stroke="#f6b715" stroke-width="1.51"/><path d="M1395,5L1350,63L1525,121Z" fill="#f8cf18" stroke="#f8cf18" stroke-width="1.51"/><path d="M1502,790L1355,893L1527,854Z" fill="#f6bd16" stroke="#f6bd16" stroke-width="1.51"/><path d="M1396,988L1417,1058L1526,1015Z" fill="#f3a316" stroke="#f3a316" stroke-width="1.51"/><path d="M1350,63L1441,235L1525,121Z" fill="#f8d018" stroke="#f8d018" stroke-width="1.51"/><path d="M1451,450L1459,543L1492,457Z" fill="#f6b715" stroke="#f6b715" stroke-width="1.51"/><path d="M1445,683L1349,769L1502,790Z" fill="#f8cb17" stroke="#f8cb17" stroke-width="1.51"/><path d="M1349,769L1355,893L1502,790Z" fill="#f7c517" stroke="#f7c517" stroke-width="1.51"/><path d="M1350,63L1307,181L1441,235Z" fill="#f8d319" stroke="#f8d319" stroke-width="1.51"/><path d="M1366,559L1445,683L1459,543Z" fill="#f8c917" stroke="#f8c917" stroke-width="1.51"/><path d="M1388,-121L1395,5L1494,-42Z" fill="#f7bf16" stroke="#f7bf16" stroke-width="1.51"/><path d="M1417,1058L1344,1170L1441,1180Z" fill="#ed921a" stroke="#ed921a" stroke-width="1.51"/><path d="M1380,281L1344,480L1451,450Z" fill="#f5b314" stroke="#f5b314" stroke-width="1.51"/><path d="M1451,450L1344,480L1459,543Z" fill="#f7bc16" stroke="#f7bc16" stroke-width="1.51"/><path d="M1344,480L1366,559L1459,543Z" fill="#f7c316" stroke="#f7c316" stroke-width="1.51"/><path d="M1441,235L1380,281L1462,268Z" fill="#f7c116" stroke="#f7c116" stroke-width="1.51"/><path d="M1323,1122L1344,1170L1417,1058Z" fill="#ef9919" stroke="#ef9919" stroke-width="1.51"/><path d="M1067,-174L1128,-120L1296,-97Z" fill="#f7c617" stroke="#f7c617" stroke-width="1.51"/><path d="M1441,1180L1344,1170L1455,1214Z" fill="#ea861b" stroke="#ea861b" stroke-width="1.51"/><path d="M1366,559L1268,644L1445,683Z" fill="#f8d319" stroke="#f8d319" stroke-width="1.51"/><path d="M1307,181L1380,281L1441,235Z" fill="#f7c917" stroke="#f7c917" stroke-width="1.51"/><path d="M1291,735L1349,769L1445,683Z" fill="#f8d419" stroke="#f8d419" stroke-width="1.51"/><path d="M1268,644L1291,735L1445,683Z" fill="#f8db1a" stroke="#f8db1a" stroke-width="1.51"/><path d="M1235,288L1344,480L1380,281Z" fill="#f7be16" stroke="#f7be16" stroke-width="1.51"/><path d="M1388,-121L1304,-42L1395,5Z" fill="#f7c517" stroke="#f7c517" stroke-width="1.51"/><path d="M1396,988L1313,978L1417,1058Z" fill="#f4ab16" stroke="#f4ab16" stroke-width="1.51"/><path d="M1313,978L1323,1122L1417,1058Z" fill="#f2a518" stroke="#f2a518" stroke-width="1.51"/><path d="M1296,-97L1304,-42L1388,-121Z" fill="#f7c317" stroke="#f7c317" stroke-width="1.51"/><path d="M1323,50L1350,63L1395,5Z" fill="#f8d118" stroke="#f8d118" stroke-width="1.51"/><path d="M1355,893L1313,978L1396,988Z" fill="#f6b715" stroke="#f6b715" stroke-width="1.51"/><path d="M1304,-42L1323,50L1395,5Z" fill="#f8cd18" stroke="#f8cd18" stroke-width="1.51"/><path d="M1235,288L1231,487L1344,480Z" fill="#f7be16" stroke="#f7be16" stroke-width="1.51"/><path d="M1349,769L1263,845L1355,893Z" fill="#f8c917" stroke="#f8c917" stroke-width="1.51"/><path d="M1307,181L1235,288L1380,281Z" fill="#f8cc18" stroke="#f8cc18" stroke-width="1.51"/><path d="M1323,50L1307,181L1350,63Z" fill="#f8db1a" stroke="#f8db1a" stroke-width="1.51"/><path d="M1344,480L1272,518L1366,559Z" fill="#f7c717" stroke="#f7c717" stroke-width="1.51"/><path d="M1272,518L1268,644L1366,559Z" fill="#f8d018" stroke="#f8d018" stroke-width="1.51"/><path d="M1313,978L1211,1100L1323,1122Z" fill="#f2a819" stroke="#f2a819" stroke-width="1.51"/><path d="M1263,845L1313,978L1355,893Z" fill="#f7c116" stroke="#f7c116" stroke-width="1.51"/><path d="M1291,735L1263,845L1349,769Z" fill="#f8d118" stroke="#f8d118" stroke-width="1.51"/><path d="M1231,487L1272,518L1344,480Z" fill="#f7c717" stroke="#f7c717" stroke-width="1.51"/><path d="M1323,1122L1183,1173L1344,1170Z" fill="#ee981b" stroke="#ee981b" stroke-width="1.51"/><path d="M1200,231L1235,288L1307,181Z" fill="#f8d319" stroke="#f8d319" stroke-width="1.51"/><path d="M1263,845L1153,883L1313,978Z" fill="#f7c717" stroke="#f7c717" stroke-width="1.51"/><path d="M1304,-42L1230,-38L1323,50Z" fill="#f8d018" stroke="#f8d018" stroke-width="1.51"/><path d="M1144,76L1307,181L1323,50Z" fill="#f8e11b" stroke="#f8e11b" stroke-width="1.51"/><path d="M1230,-38L1144,76L1323,50Z" fill="#f8d91a" stroke="#f8d91a" stroke-width="1.51"/><path d="M1211,1100L1183,1173L1323,1122Z" fill="#f0a01b" stroke="#f0a01b" stroke-width="1.51"/><path d="M979,1198L809,1231L1093,1223Z" fill="#e9801b" stroke="#e9801b" stroke-width="1.51"/><path d="M1145,450L1231,487L1235,288Z" fill="#f7c217" stroke="#f7c217" stroke-width="1.51"/><path d="M1144,76L1200,231L1307,181Z" fill="#f8df1a" stroke="#f8df1a" stroke-width="1.51"/><path d="M1128,947L1211,1100L1313,978Z" fill="#f5b918" stroke="#f5b918" stroke-width="1.51"/><path d="M1153,883L1128,947L1313,978Z" fill="#f7c617" stroke="#f7c617" stroke-width="1.51"/><path d="M1296,-97L1230,-38L1304,-42Z" fill="#f7ca18" stroke="#f7ca18" stroke-width="1.51"/><path d="M1179,650L1268,644L1272,518Z" fill="#f8d91a" stroke="#f8d91a" stroke-width="1.51"/><path d="M1268,644L1174,709L1291,735Z" fill="#f8e11b" stroke="#f8e11b" stroke-width="1.51"/><path d="M1174,709L1263,845L1291,735Z" fill="#f8d91a" stroke="#f8d91a" stroke-width="1.51"/><path d="M1128,-120L1230,-38L1296,-97Z" fill="#f8cc18" stroke="#f8cc18" stroke-width="1.51"/><path d="M1169,273L1094,364L1235,288Z" fill="#f8cc18" stroke="#f8cc18" stroke-width="1.51"/><path d="M1094,364L1145,450L1235,288Z" fill="#f7c317" stroke="#f7c317" stroke-width="1.51"/><path d="M1174,709L1153,883L1263,845Z" fill="#f8d619" stroke="#f8d619" stroke-width="1.51"/><path d="M1179,650L1174,709L1268,644Z" fill="#f8e41c" stroke="#f8e41c" stroke-width="1.51"/><path d="M1231,487L1179,650L1272,518Z" fill="#f8d319" stroke="#f8d319" stroke-width="1.51"/><path d="M1093,745L1153,883L1174,709Z" fill="#f8d719" stroke="#f8d719" stroke-width="1.51"/><path d="M1077,545L1093,620L1179,650Z" fill="#f8d719" stroke="#f8d719" stroke-width="1.51"/><path d="M1077,545L1179,650L1231,487Z" fill="#f8d519" stroke="#f8d519" stroke-width="1.51"/><path d="M1145,450L1077,545L1231,487Z" fill="#f7cc18" stroke="#f7cc18" stroke-width="1.51"/><path d="M1200,231L1169,273L1235,288Z" fill="#f8d219" stroke="#f8d219" stroke-width="1.51"/><path d="M1128,947L1053,1016L1211,1100Z" fill="#f5b318" stroke="#f5b318" stroke-width="1.51"/><path d="M1093,63L1144,76L1230,-38Z" fill="#f8da1a" stroke="#f8da1a" stroke-width="1.51"/><path d="M1128,-120L1093,63L1230,-38Z" fill="#f8d218" stroke="#f8d218" stroke-width="1.51"/><path d="M1050,36L1093,63L1128,-120Z" fill="#f8d018" stroke="#f8d018" stroke-width="1.51"/><path d="M1144,76L1018,223L1200,231Z" fill="#f8d919" stroke="#f8d919" stroke-width="1.51"/><path d="M1029,1101L1183,1173L1211,1100Z" fill="#f0a11b" stroke="#f0a11b" stroke-width="1.51"/><path d="M1053,1016L1029,1101L1211,1100Z" fill="#f2a719" stroke="#f2a719" stroke-width="1.51"/><path d="M1018,223L1169,273L1200,231Z" fill="#f8d118" stroke="#f8d118" stroke-width="1.51"/><path d="M1093,63L1018,223L1144,76Z" fill="#f8de1a" stroke="#f8de1a" stroke-width="1.51"/><path d="M1093,620L1174,709L1179,650Z" fill="#f8e11b" stroke="#f8e11b" stroke-width="1.51"/><path d="M1029,1101L1093,1223L1183,1173Z" fill="#ed961b" stroke="#ed961b" stroke-width="1.51"/><path d="M1093,745L1061,887L1153,883Z" fill="#f8cc18" stroke="#f8cc18" stroke-width="1.51"/><path d="M1093,620L1093,745L1174,709Z" fill="#f8e11b" stroke="#f8e11b" stroke-width="1.51"/><path d="M772,-164L948,-125L1067,-174Z" fill="#f5b014" stroke="#f5b014" stroke-width="1.51"/><path d="M1018,223L1094,364L1169,273Z" fill="#f7c817" stroke="#f7c817" stroke-width="1.51"/><path d="M999,100L1018,223L1093,63Z" fill="#f8d819" stroke="#f8d819" stroke-width="1.51"/><path d="M1094,364L1067,434L1145,450Z" fill="#f7bd16" stroke="#f7bd16" stroke-width="1.51"/><path d="M1067,434L1077,545L1145,450Z" fill="#f7c517" stroke="#f7c517" stroke-width="1.51"/><path d="M1061,887L1128,947L1153,883Z" fill="#f7c417" stroke="#f7c417" stroke-width="1.51"/><path d="M1003,809L1061,887L1093,745Z" fill="#f8cb18" stroke="#f8cb18" stroke-width="1.51"/><path d="M1067,-174L948,-125L1128,-120Z" fill="#f6bb15" stroke="#f6bb15" stroke-width="1.51"/><path d="M948,-125L1050,36L1128,-120Z" fill="#f7c416" stroke="#f7c416" stroke-width="1.51"/><path d="M1061,887L1014,959L1128,947Z" fill="#f6bd16" stroke="#f6bd16" stroke-width="1.51"/><path d="M1014,959L1053,1016L1128,947Z" fill="#f6b715" stroke="#f6b715" stroke-width="1.51"/><path d="M1067,434L945,522L1077,545Z" fill="#f7c316" stroke="#f7c316" stroke-width="1.51"/><path d="M1050,36L999,100L1093,63Z" fill="#f8d619" stroke="#f8d619" stroke-width="1.51"/><path d="M1077,545L945,522L1093,620Z" fill="#f8cc17" stroke="#f8cc17" stroke-width="1.51"/><path d="M1093,620L932,700L1093,745Z" fill="#f8db1a" stroke="#f8db1a" stroke-width="1.51"/><path d="M932,700L1003,809L1093,745Z" fill="#f8d018" stroke="#f8d018" stroke-width="1.51"/><path d="M1029,1101L979,1198L1093,1223Z" fill="#ec8f1b" stroke="#ec8f1b" stroke-width="1.51"/><path d="M979,391L1067,434L1094,364Z" fill="#f6b615" stroke="#f6b615" stroke-width="1.51"/><path d="M1018,223L979,391L1094,364Z" fill="#f7be16" stroke="#f7be16" stroke-width="1.51"/><path d="M945,522L890,616L1093,620Z" fill="#f8ca17" stroke="#f8ca17" stroke-width="1.51"/><path d="M890,616L932,700L1093,620Z" fill="#f8d118" stroke="#f8d118" stroke-width="1.51"/><path d="M917,326L979,391L1018,223Z" fill="#f7bb15" stroke="#f7bb15" stroke-width="1.51"/><path d="M999,100L966,196L1018,223Z" fill="#f8cf18" stroke="#f8cf18" stroke-width="1.51"/><path d="M948,-125L914,26L1050,36Z" fill="#f7c517" stroke="#f7c517" stroke-width="1.51"/><path d="M979,391L945,522L1067,434Z" fill="#f6b915" stroke="#f6b915" stroke-width="1.51"/><path d="M966,1085L1029,1101L1053,1016Z" fill="#f1a218" stroke="#f1a218" stroke-width="1.51"/><path d="M959,830L1014,959L1061,887Z" fill="#f6be16" stroke="#f6be16" stroke-width="1.51"/><path d="M1003,809L959,830L1061,887Z" fill="#f7c417" stroke="#f7c417" stroke-width="1.51"/><path d="M1014,959L966,1085L1053,1016Z" fill="#f3aa17" stroke="#f3aa17" stroke-width="1.51"/><path d="M914,26L999,100L1050,36Z" fill="#f8cf18" stroke="#f8cf18" stroke-width="1.51"/><path d="M959,830L879,875L1014,959Z" fill="#f6b915" stroke="#f6b915" stroke-width="1.51"/><path d="M966,196L917,326L1018,223Z" fill="#f7c317" stroke="#f7c317" stroke-width="1.51"/><path d="M966,1085L979,1198L1029,1101Z" fill="#ee941a" stroke="#ee941a" stroke-width="1.51"/><path d="M932,700L959,830L1003,809Z" fill="#f8c917" stroke="#f8c917" stroke-width="1.51"/><path d="M842,1040L966,1085L1014,959Z" fill="#f3a216" stroke="#f3a216" stroke-width="1.51"/><path d="M-129,1154L-180,1140L103,1242Z" fill="#ea7f19" stroke="#ea7f19" stroke-width="1.51"/><path d="M879,875L842,1040L1014,959Z" fill="#f5ad13" stroke="#f5ad13" stroke-width="1.51"/><path d="M276,1205L103,1242L532,1234Z" fill="#eb8f1d" stroke="#eb8f1d" stroke-width="1.51"/><path d="M932,700L900,716L959,830Z" fill="#f8ca17" stroke="#f8ca17" stroke-width="1.51"/><path d="M847,159L966,196L999,100Z" fill="#f8ce18" stroke="#f8ce18" stroke-width="1.51"/><path d="M853,-90L914,26L948,-125Z" fill="#f6ba15" stroke="#f6ba15" stroke-width="1.51"/><path d="M914,26L847,159L999,100Z" fill="#f7cf18" stroke="#f7cf18" stroke-width="1.51"/><path d="M814,1006L842,1040L879,875Z" fill="#f4a513" stroke="#f4a513" stroke-width="1.51"/><path d="M841,57L847,159L914,26Z" fill="#f7c918" stroke="#f7c918" stroke-width="1.51"/><path d="M842,1040L769,1154L966,1085Z" fill="#ee9017" stroke="#ee9017" stroke-width="1.51"/><path d="M769,1154L809,1231L966,1085Z" fill="#eb8218" stroke="#eb8218" stroke-width="1.51"/><path d="M832,475L945,522L979,391Z" fill="#f6b515" stroke="#f6b515" stroke-width="1.51"/><path d="M917,326L832,475L979,391Z" fill="#f5ab13" stroke="#f5ab13" stroke-width="1.51"/><path d="M966,1085L809,1231L979,1198Z" fill="#eb851a" stroke="#eb851a" stroke-width="1.51"/><path d="M801,372L832,475L917,326Z" fill="#f4a713" stroke="#f4a713" stroke-width="1.51"/><path d="M868,570L890,616L945,522Z" fill="#f7c116" stroke="#f7c116" stroke-width="1.51"/><path d="M772,-164L853,-90L948,-125Z" fill="#f5ad13" stroke="#f5ad13" stroke-width="1.51"/><path d="M900,716L879,875L959,830Z" fill="#f7c116" stroke="#f7c116" stroke-width="1.51"/><path d="M847,159L917,326L966,196Z" fill="#f7c216" stroke="#f7c216" stroke-width="1.51"/><path d="M-37,-173L177,-137L425,-173Z" fill="#f6bd16" stroke="#f6bd16" stroke-width="1.51"/><path d="M847,159L769,264L917,326Z" fill="#f6b915" stroke="#f6b915" stroke-width="1.51"/><path d="M890,616L900,716L932,700Z" fill="#f8d018" stroke="#f8d018" stroke-width="1.51"/><path d="M832,475L868,570L945,522Z" fill="#f7b915" stroke="#f7b915" stroke-width="1.51"/><path d="M766,847L879,875L900,716Z" fill="#f6bb15" stroke="#f6bb15" stroke-width="1.51"/><path d="M853,-90L839,27L914,26Z" fill="#f7bd16" stroke="#f7bd16" stroke-width="1.51"/><path d="M465,-167L652,-126L772,-164Z" fill="#f5a713" stroke="#f5a713" stroke-width="1.51"/><path d="M762,1104L769,1154L842,1040Z" fill="#ed8817" stroke="#ed8817" stroke-width="1.51"/><path d="M769,264L801,372L917,326Z" fill="#f5af14" stroke="#f5af14" stroke-width="1.51"/><path d="M763,691L766,847L900,716Z" fill="#f7bf16" stroke="#f7bf16" stroke-width="1.51"/><path d="M890,616L763,691L900,716Z" fill="#f7cb18" stroke="#f7cb18" stroke-width="1.51"/><path d="M839,27L841,57L914,26Z" fill="#f7c316" stroke="#f7c316" stroke-width="1.51"/><path d="M763,691L720,768L766,847Z" fill="#f6b815" stroke="#f6b815" stroke-width="1.51"/><path d="M766,847L814,1006L879,875Z" fill="#f5ac14" stroke="#f5ac14" stroke-width="1.51"/><path d="M868,570L763,691L890,616Z" fill="#f7c317" stroke="#f7c317" stroke-width="1.51"/><path d="M841,57L792,151L847,159Z" fill="#f7c818" stroke="#f7c818" stroke-width="1.51"/><path d="M749,541L763,691L868,570Z" fill="#f6bd16" stroke="#f6bd16" stroke-width="1.51"/><path d="M792,151L769,264L847,159Z" fill="#f7bd16" stroke="#f7bd16" stroke-width="1.51"/><path d="M689,-51L839,27L853,-90Z" fill="#f6b414" stroke="#f6b414" stroke-width="1.51"/><path d="M832,475L749,541L868,570Z" fill="#f6b515" stroke="#f6b515" stroke-width="1.51"/><path d="M772,-164L689,-51L853,-90Z" fill="#f5aa13" stroke="#f5aa13" stroke-width="1.51"/><path d="M766,847L694,1015L814,1006Z" fill="#f3a012" stroke="#f3a012" stroke-width="1.51"/><path d="M689,-51L674,21L839,27Z" fill="#f5b415" stroke="#f5b415" stroke-width="1.51"/><path d="M814,1006L762,1104L842,1040Z" fill="#f09315" stroke="#f09315" stroke-width="1.51"/><path d="M839,27L674,21L841,57Z" fill="#f6bc16" stroke="#f6bc16" stroke-width="1.51"/><path d="M674,21L792,151L841,57Z" fill="#f7c117" stroke="#f7c117" stroke-width="1.51"/><path d="M801,372L693,400L832,475Z" fill="#f4a313" stroke="#f4a313" stroke-width="1.51"/><path d="M769,264L723,304L801,372Z" fill="#f5aa13" stroke="#f5aa13" stroke-width="1.51"/><path d="M675,429L749,541L832,475Z" fill="#f5aa13" stroke="#f5aa13" stroke-width="1.51"/><path d="M693,400L675,429L832,475Z" fill="#f4a212" stroke="#f4a212" stroke-width="1.51"/><path d="M694,1015L762,1104L814,1006Z" fill="#f09115" stroke="#f09115" stroke-width="1.51"/><path d="M749,541L658,611L763,691Z" fill="#f6b915" stroke="#f6b915" stroke-width="1.51"/><path d="M769,1154L629,1246L809,1231Z" fill="#e66d19" stroke="#e66d19" stroke-width="1.51"/><path d="M631,240L769,264L792,151Z" fill="#f6b415" stroke="#f6b415" stroke-width="1.51"/><path d="M723,304L693,400L801,372Z" fill="#f4a212" stroke="#f4a212" stroke-width="1.51"/><path d="M617,885L694,1015L766,847Z" fill="#f5a613" stroke="#f5a613" stroke-width="1.51"/><path d="M652,-126L689,-51L772,-164Z" fill="#f5a613" stroke="#f5a613" stroke-width="1.51"/><path d="M674,21L572,126L792,151Z" fill="#f7c417" stroke="#f7c417" stroke-width="1.51"/><path d="M572,126L631,240L792,151Z" fill="#f7bf16" stroke="#f7bf16" stroke-width="1.51"/><path d="M631,240L723,304L769,264Z" fill="#f5af14" stroke="#f5af14" stroke-width="1.51"/><path d="M762,1104L632,1046L769,1154Z" fill="#ec8316" stroke="#ec8316" stroke-width="1.51"/><path d="M632,1046L629,1246L769,1154Z" fill="#ea7e18" stroke="#ea7e18" stroke-width="1.51"/><path d="M720,768L617,885L766,847Z" fill="#f6b114" stroke="#f6b114" stroke-width="1.51"/><path d="M631,240L653,292L723,304Z" fill="#f5b114" stroke="#f5b114" stroke-width="1.51"/><path d="M694,1015L632,1046L762,1104Z" fill="#ef8f15" stroke="#ef8f15" stroke-width="1.51"/><path d="M658,611L720,768L763,691Z" fill="#f7c217" stroke="#f7c217" stroke-width="1.51"/><path d="M658,611L617,760L720,768Z" fill="#f7c317" stroke="#f7c317" stroke-width="1.51"/><path d="M675,429L608,535L749,541Z" fill="#f5af14" stroke="#f5af14" stroke-width="1.51"/><path d="M608,535L658,611L749,541Z" fill="#f6b715" stroke="#f6b715" stroke-width="1.51"/><path d="M577,65L572,126L674,21Z" fill="#f7c717" stroke="#f7c717" stroke-width="1.51"/><path d="M617,885L606,1005L694,1015Z" fill="#f4a413" stroke="#f4a413" stroke-width="1.51"/><path d="M617,760L617,885L720,768Z" fill="#f6b915" stroke="#f6b915" stroke-width="1.51"/><path d="M653,292L693,400L723,304Z" fill="#f5a813" stroke="#f5a813" stroke-width="1.51"/><path d="M532,1234L629,1246L632,1046Z" fill="#ea8019" stroke="#ea8019" stroke-width="1.51"/><path d="M653,292L553,440L675,429Z" fill="#f4a613" stroke="#f4a613" stroke-width="1.51"/><path d="M653,292L675,429L693,400Z" fill="#f4a413" stroke="#f4a413" stroke-width="1.51"/><path d="M606,1005L632,1046L694,1015Z" fill="#f29915" stroke="#f29915" stroke-width="1.51"/><path d="M538,-62L674,21L689,-51Z" fill="#f6b715" stroke="#f6b715" stroke-width="1.51"/><path d="M652,-126L538,-62L689,-51Z" fill="#f6b114" stroke="#f6b114" stroke-width="1.51"/><path d="M484,1067L532,1234L632,1046Z" fill="#ee9018" stroke="#ee9018" stroke-width="1.51"/><path d="M538,-62L577,65L674,21Z" fill="#f7bf16" stroke="#f7bf16" stroke-width="1.51"/><path d="M553,440L608,535L675,429Z" fill="#f5af14" stroke="#f5af14" stroke-width="1.51"/><path d="M484,1067L458,1154L532,1234Z" fill="#ec8e1a" stroke="#ec8e1a" stroke-width="1.51"/><path d="M477,600L455,667L617,760Z" fill="#f8d219" stroke="#f8d219" stroke-width="1.51"/><path d="M455,667L472,727L617,760Z" fill="#f8cf18" stroke="#f8cf18" stroke-width="1.51"/><path d="M535,842L617,885L617,760Z" fill="#f7ba15" stroke="#f7ba15" stroke-width="1.51"/><path d="M565,254L553,440L653,292Z" fill="#f6b114" stroke="#f6b114" stroke-width="1.51"/><path d="M477,600L617,760L658,611Z" fill="#f7ca18" stroke="#f7ca18" stroke-width="1.51"/><path d="M608,535L477,600L658,611Z" fill="#f7c116" stroke="#f7c116" stroke-width="1.51"/><path d="M465,-167L538,-62L652,-126Z" fill="#f6b214" stroke="#f6b214" stroke-width="1.51"/><path d="M631,240L565,254L653,292Z" fill="#f6b815" stroke="#f6b815" stroke-width="1.51"/><path d="M572,126L565,254L631,240Z" fill="#f7c116" stroke="#f7c116" stroke-width="1.51"/><path d="M465,305L553,440L565,254Z" fill="#f6b515" stroke="#f6b515" stroke-width="1.51"/><path d="M511,529L477,600L608,535Z" fill="#f7c116" stroke="#f7c116" stroke-width="1.51"/><path d="M515,991L606,1005L617,885Z" fill="#f5aa13" stroke="#f5aa13" stroke-width="1.51"/><path d="M606,1005L484,1067L632,1046Z" fill="#f29c16" stroke="#f29c16" stroke-width="1.51"/><path d="M515,991L484,1067L606,1005Z" fill="#f3a216" stroke="#f3a216" stroke-width="1.51"/><path d="M553,440L511,529L608,535Z" fill="#f6b815" stroke="#f6b815" stroke-width="1.51"/><path d="M535,842L515,991L617,885Z" fill="#f6b314" stroke="#f6b314" stroke-width="1.51"/><path d="M472,727L535,842L617,760Z" fill="#f7c517" stroke="#f7c517" stroke-width="1.51"/><path d="M462,199L565,254L572,126Z" fill="#f7c717" stroke="#f7c717" stroke-width="1.51"/><path d="M452,934L515,991L535,842Z" fill="#f6b614" stroke="#f6b614" stroke-width="1.51"/><path d="M461,877L452,934L535,842Z" fill="#f7bc15" stroke="#f7bc15" stroke-width="1.51"/><path d="M538,-62L365,18L577,65Z" fill="#f7c817" stroke="#f7c817" stroke-width="1.51"/><path d="M396,137L572,126L577,65Z" fill="#f8d319" stroke="#f8d319" stroke-width="1.51"/><path d="M365,18L396,137L577,65Z" fill="#f8d419" stroke="#f8d419" stroke-width="1.51"/><path d="M396,137L462,199L572,126Z" fill="#f8d118" stroke="#f8d118" stroke-width="1.51"/><path d="M442,270L465,305L565,254Z" fill="#f7c016" stroke="#f7c016" stroke-width="1.51"/><path d="M462,199L442,270L565,254Z" fill="#f7c417" stroke="#f7c417" stroke-width="1.51"/><path d="M386,473L511,529L553,440Z" fill="#f7bb15" stroke="#f7bb15" stroke-width="1.51"/><path d="M465,305L386,473L553,440Z" fill="#f5b314" stroke="#f5b314" stroke-width="1.51"/><path d="M463,578L477,600L511,529Z" fill="#f7c717" stroke="#f7c717" stroke-width="1.51"/><path d="M458,1154L276,1205L532,1234Z" fill="#eb8b1b" stroke="#eb8b1b" stroke-width="1.51"/><path d="M472,727L461,877L535,842Z" fill="#f7c417" stroke="#f7c417" stroke-width="1.51"/><path d="M465,-167L365,18L538,-62Z" fill="#f7c116" stroke="#f7c116" stroke-width="1.51"/><path d="M425,-173L365,18L465,-167Z" fill="#f7bf16" stroke="#f7bf16" stroke-width="1.51"/><path d="M452,934L484,1067L515,991Z" fill="#f4ab15" stroke="#f4ab15" stroke-width="1.51"/><path d="M386,473L463,578L511,529Z" fill="#f7c416" stroke="#f7c416" stroke-width="1.51"/><path d="M289,-89L365,18L425,-173Z" fill="#f7c717" stroke="#f7c717" stroke-width="1.51"/><path d="M312,1144L276,1205L458,1154Z" fill="#ed971b" stroke="#ed971b" stroke-width="1.51"/><path d="M300,368L386,473L465,305Z" fill="#f7ba15" stroke="#f7ba15" stroke-width="1.51"/><path d="M380,718L461,877L472,727Z" fill="#f8cd18" stroke="#f8cd18" stroke-width="1.51"/><path d="M384,1067L458,1154L484,1067Z" fill="#f09c19" stroke="#f09c19" stroke-width="1.51"/><path d="M452,934L384,1067L484,1067Z" fill="#f3aa17" stroke="#f3aa17" stroke-width="1.51"/><path d="M380,718L293,756L461,877Z" fill="#f8d118" stroke="#f8d118" stroke-width="1.51"/><path d="M463,578L455,667L477,600Z" fill="#f8ce18" stroke="#f8ce18" stroke-width="1.51"/><path d="M293,756L343,922L461,877Z" fill="#f7c918" stroke="#f7c918" stroke-width="1.51"/><path d="M455,667L380,718L472,727Z" fill="#f8d719" stroke="#f8d719" stroke-width="1.51"/><path d="M343,922L384,1067L452,934Z" fill="#f6b715" stroke="#f6b715" stroke-width="1.51"/><path d="M261,613L380,718L455,667Z" fill="#f8dd1a" stroke="#f8dd1a" stroke-width="1.51"/><path d="M261,613L455,667L463,578Z" fill="#f8d519" stroke="#f8d519" stroke-width="1.51"/><path d="M313,511L261,613L463,578Z" fill="#f8d218" stroke="#f8d218" stroke-width="1.51"/><path d="M386,473L313,511L463,578Z" fill="#f7c917" stroke="#f7c917" stroke-width="1.51"/><path d="M442,270L300,368L465,305Z" fill="#f7c216" stroke="#f7c216" stroke-width="1.51"/><path d="M343,922L452,934L461,877Z" fill="#f7be16" stroke="#f7be16" stroke-width="1.51"/><path d="M396,137L442,270L462,199Z" fill="#f8cd18" stroke="#f8cd18" stroke-width="1.51"/><path d="M396,137L293,234L442,270Z" fill="#f8d118" stroke="#f8d118" stroke-width="1.51"/><path d="M384,1067L312,1144L458,1154Z" fill="#ef9c1a" stroke="#ef9c1a" stroke-width="1.51"/><path d="M365,18L354,126L396,137Z" fill="#f8dd1a" stroke="#f8dd1a" stroke-width="1.51"/><path d="M293,234L300,368L442,270Z" fill="#f7ca17" stroke="#f7ca17" stroke-width="1.51"/><path d="M354,126L293,234L396,137Z" fill="#f8da1a" stroke="#f8da1a" stroke-width="1.51"/><path d="M177,-137L289,-89L425,-173Z" fill="#f7c517" stroke="#f7c517" stroke-width="1.51"/><path d="M293,756L226,818L343,922Z" fill="#f8d218" stroke="#f8d218" stroke-width="1.51"/><path d="M343,922L298,935L384,1067Z" fill="#f6bb16" stroke="#f6bb16" stroke-width="1.51"/><path d="M300,368L255,427L386,473Z" fill="#f7c217" stroke="#f7c217" stroke-width="1.51"/><path d="M289,-89L272,-1L365,18Z" fill="#f8d219" stroke="#f8d219" stroke-width="1.51"/><path d="M261,613L293,756L380,718Z" fill="#f8e21b" stroke="#f8e21b" stroke-width="1.51"/><path d="M298,935L242,1100L384,1067Z" fill="#f4b218" stroke="#f4b218" stroke-width="1.51"/><path d="M255,427L313,511L386,473Z" fill="#f7c817" stroke="#f7c817" stroke-width="1.51"/><path d="M242,1100L312,1144L384,1067Z" fill="#f1a61a" stroke="#f1a61a" stroke-width="1.51"/><path d="M226,818L298,935L343,922Z" fill="#f7ca17" stroke="#f7ca17" stroke-width="1.51"/><path d="M272,-1L354,126L365,18Z" fill="#f8da19" stroke="#f8da19" stroke-width="1.51"/><path d="M173,73L293,234L354,126Z" fill="#f8e21b" stroke="#f8e21b" stroke-width="1.51"/><path d="M272,-1L173,73L354,126Z" fill="#f8e11b" stroke="#f8e11b" stroke-width="1.51"/><path d="M261,613L208,672L293,756Z" fill="#f8e61c" stroke="#f8e61c" stroke-width="1.51"/><path d="M236,559L261,613L313,511Z" fill="#f8d719" stroke="#f8d719" stroke-width="1.51"/><path d="M171,1183L103,1242L276,1205Z" fill="#eb8e1c" stroke="#eb8e1c" stroke-width="1.51"/><path d="M173,73L150,239L293,234Z" fill="#f8d919" stroke="#f8d919" stroke-width="1.51"/><path d="M153,925L242,1100L298,935Z" fill="#f6bb17" stroke="#f6bb17" stroke-width="1.51"/><path d="M293,234L187,309L300,368Z" fill="#f8ce18" stroke="#f8ce18" stroke-width="1.51"/><path d="M255,427L223,439L313,511Z" fill="#f7ca18" stroke="#f7ca18" stroke-width="1.51"/><path d="M223,439L236,559L313,511Z" fill="#f8cf18" stroke="#f8cf18" stroke-width="1.51"/><path d="M222,-26L272,-1L289,-89Z" fill="#f8d319" stroke="#f8d319" stroke-width="1.51"/><path d="M242,1100L276,1205L312,1144Z" fill="#efa01c" stroke="#efa01c" stroke-width="1.51"/><path d="M226,818L153,925L298,935Z" fill="#f7c817" stroke="#f7c817" stroke-width="1.51"/><path d="M187,309L255,427L300,368Z" fill="#f7c417" stroke="#f7c417" stroke-width="1.51"/><path d="M242,1100L171,1183L276,1205Z" fill="#ee9b1b" stroke="#ee9b1b" stroke-width="1.51"/><path d="M189,810L226,818L293,756Z" fill="#f8d619" stroke="#f8d619" stroke-width="1.51"/><path d="M208,672L189,810L293,756Z" fill="#f8dc1a" stroke="#f8dc1a" stroke-width="1.51"/><path d="M150,239L187,309L293,234Z" fill="#f8cf18" stroke="#f8cf18" stroke-width="1.51"/><path d="M177,-137L222,-26L289,-89Z" fill="#f8cb18" stroke="#f8cb18" stroke-width="1.51"/><path d="M187,309L223,439L255,427Z" fill="#f7bf16" stroke="#f7bf16" stroke-width="1.51"/><path d="M222,-26L173,73L272,-1Z" fill="#f8d719" stroke="#f8d719" stroke-width="1.51"/><path d="M99,133L150,239L173,73Z" fill="#f8d819" stroke="#f8d819" stroke-width="1.51"/><path d="M153,925L63,1066L242,1100Z" fill="#f4ae17" stroke="#f4ae17" stroke-width="1.51"/><path d="M236,559L208,672L261,613Z" fill="#f8dc1a" stroke="#f8dc1a" stroke-width="1.51"/><path d="M189,810L153,925L226,818Z" fill="#f7cb18" stroke="#f7cb18" stroke-width="1.51"/><path d="M99,644L208,672L236,559Z" fill="#f8d91a" stroke="#f8d91a" stroke-width="1.51"/><path d="M223,439L94,459L236,559Z" fill="#f7c717" stroke="#f7c717" stroke-width="1.51"/><path d="M63,1066L171,1183L242,1100Z" fill="#f09e1a" stroke="#f09e1a" stroke-width="1.51"/><path d="M107,800L189,810L208,672Z" fill="#f8d519" stroke="#f8d519" stroke-width="1.51"/><path d="M177,-137L112,-40L222,-26Z" fill="#f7c917" stroke="#f7c917" stroke-width="1.51"/><path d="M187,309L94,459L223,439Z" fill="#f6ba16" stroke="#f6ba16" stroke-width="1.51"/><path d="M94,459L99,644L236,559Z" fill="#f8cd18" stroke="#f8cd18" stroke-width="1.51"/><path d="M94,459L37,572L99,644Z" fill="#f7c817" stroke="#f7c817" stroke-width="1.51"/><path d="M108,-102L112,-40L177,-137Z" fill="#f7c216" stroke="#f7c216" stroke-width="1.51"/><path d="M112,-40L173,73L222,-26Z" fill="#f8d119" stroke="#f8d119" stroke-width="1.51"/><path d="M98,299L94,459L187,309Z" fill="#f6bc16" stroke="#f6bc16" stroke-width="1.51"/><path d="M99,644L107,800L208,672Z" fill="#f8da1a" stroke="#f8da1a" stroke-width="1.51"/><path d="M42,1000L63,1066L153,925Z" fill="#f4ae16" stroke="#f4ae16" stroke-width="1.51"/><path d="M-37,-173L108,-102L177,-137Z" fill="#f6b815" stroke="#f6b815" stroke-width="1.51"/><path d="M87,894L153,925L189,810Z" fill="#f7c417" stroke="#f7c417" stroke-width="1.51"/><path d="M107,800L87,894L189,810Z" fill="#f8c917" stroke="#f8c917" stroke-width="1.51"/><path d="M99,133L87,206L150,239Z" fill="#f8d018" stroke="#f8d018" stroke-width="1.51"/><path d="M150,239L98,299L187,309Z" fill="#f7c717" stroke="#f7c717" stroke-width="1.51"/><path d="M23,351L94,459L98,299Z" fill="#f6b615" stroke="#f6b615" stroke-width="1.51"/><path d="M63,1066L6,1174L171,1183Z" fill="#ee931a" stroke="#ee931a" stroke-width="1.51"/><path d="M112,-40L99,133L173,73Z" fill="#f8d519" stroke="#f8d519" stroke-width="1.51"/><path d="M6,1174L-129,1154L103,1242Z" fill="#ea821a" stroke="#ea821a" stroke-width="1.51"/><path d="M6,1174L103,1242L171,1183Z" fill="#eb891b" stroke="#eb891b" stroke-width="1.51"/><path d="M4,95L99,133L112,-40Z" fill="#f8d218" stroke="#f8d218" stroke-width="1.51"/><path d="M87,894L42,1000L153,925Z" fill="#f6b815" stroke="#f6b815" stroke-width="1.51"/><path d="M14,-39L4,95L112,-40Z" fill="#f7c817" stroke="#f7c817" stroke-width="1.51"/><path d="M87,206L98,299L150,239Z" fill="#f8c917" stroke="#f8c917" stroke-width="1.51"/><path d="M99,644L22,644L107,800Z" fill="#f8d619" stroke="#f8d619" stroke-width="1.51"/><path d="M22,644L-53,730L107,800Z" fill="#f8ce18" stroke="#f8ce18" stroke-width="1.51"/><path d="M108,-102L14,-39L112,-40Z" fill="#f7c216" stroke="#f7c216" stroke-width="1.51"/><path d="M-20,481L37,572L94,459Z" fill="#f7be15" stroke="#f7be15" stroke-width="1.51"/><path d="M37,572L22,644L99,644Z" fill="#f8ce18" stroke="#f8ce18" stroke-width="1.51"/><path d="M-53,730L87,894L107,800Z" fill="#f7c617" stroke="#f7c617" stroke-width="1.51"/><path d="M-37,-173L14,-39L108,-102Z" fill="#f6b815" stroke="#f6b815" stroke-width="1.51"/><path d="M-53,730L-74,916L87,894Z" fill="#f6bc16" stroke="#f6bc16" stroke-width="1.51"/><path d="M87,206L23,351L98,299Z" fill="#f7c116" stroke="#f7c116" stroke-width="1.51"/><path d="M-33,171L87,206L99,133Z" fill="#f8ce18" stroke="#f8ce18" stroke-width="1.51"/><path d="M4,95L-33,171L99,133Z" fill="#f8d118" stroke="#f8d118" stroke-width="1.51"/><path d="M-33,171L23,351L87,206Z" fill="#f7c316" stroke="#f7c316" stroke-width="1.51"/><path d="M23,351L-20,481L94,459Z" fill="#f6b314" stroke="#f6b314" stroke-width="1.51"/><path d="M-74,916L42,1000L87,894Z" fill="#f6b214" stroke="#f6b214" stroke-width="1.51"/><path d="M-82,1082L6,1174L63,1066Z" fill="#ee9218" stroke="#ee9218" stroke-width="1.51"/><path d="M-43,1016L-82,1082L63,1066Z" fill="#f19b16" stroke="#f19b16" stroke-width="1.51"/><path d="M42,1000L-43,1016L63,1066Z" fill="#f3a316" stroke="#f3a316" stroke-width="1.51"/><path d="M-101,34L4,95L14,-39Z" fill="#f7c517" stroke="#f7c517" stroke-width="1.51"/><path d="M-89,367L-20,481L23,351Z" fill="#f5aa13" stroke="#f5aa13" stroke-width="1.51"/><path d="M-33,171L-89,367L23,351Z" fill="#f6b715" stroke="#f6b715" stroke-width="1.51"/><path d="M-20,481L-74,549L37,572Z" fill="#f7bd15" stroke="#f7bd15" stroke-width="1.51"/><path d="M-74,916L-43,1016L42,1000Z" fill="#f4a914" stroke="#f4a914" stroke-width="1.51"/><path d="M-74,549L22,644L37,572Z" fill="#f7c517" stroke="#f7c517" stroke-width="1.51"/><path d="M-37,-173L-178,-92L14,-39Z" fill="#f5b114" stroke="#f5b114" stroke-width="1.51"/><path d="M-112,655L-53,730L22,644Z" fill="#f8cd18" stroke="#f8cd18" stroke-width="1.51"/><path d="M-74,549L-112,655L22,644Z" fill="#f7c517" stroke="#f7c517" stroke-width="1.51"/><path d="M-109,733L-74,916L-53,730Z" fill="#f6bd16" stroke="#f6bd16" stroke-width="1.51"/><path d="M-97,153L-89,367L-33,171Z" fill="#f6bc15" stroke="#f6bc15" stroke-width="1.51"/><path d="M-178,-92L-101,34L14,-39Z" fill="#f6b815" stroke="#f6b815" stroke-width="1.51"/><path d="M-97,153L-146,164L-89,367Z" fill="#f6ba15" stroke="#f6ba15" stroke-width="1.51"/><path d="M-74,916L-99,975L-43,1016Z" fill="#f4a613" stroke="#f4a613" stroke-width="1.51"/><path d="M-97,153L-33,171L4,95Z" fill="#f7cb18" stroke="#f7cb18" stroke-width="1.51"/><path d="M-82,1082L-129,1154L6,1174Z" fill="#ec8718" stroke="#ec8718" stroke-width="1.51"/><path d="M-101,34L-97,153L4,95Z" fill="#f7cb17" stroke="#f7cb17" stroke-width="1.51"/><path d="M-116,478L-74,549L-20,481Z" fill="#f6b514" stroke="#f6b514" stroke-width="1.51"/><path d="M-89,367L-116,478L-20,481Z" fill="#f5ac13" stroke="#f5ac13" stroke-width="1.51"/><path d="M-109,733L-162,923L-74,916Z" fill="#f6b214" stroke="#f6b214" stroke-width="1.51"/><path d="M-112,655L-109,733L-53,730Z" fill="#f7c717" stroke="#f7c717" stroke-width="1.51"/><path d="M-99,975L-82,1082L-43,1016Z" fill="#f19c15" stroke="#f19c15" stroke-width="1.51"/><path d="M-160,592L-112,655L-74,549Z" fill="#f7bd16" stroke="#f7bd16" stroke-width="1.51"/><path d="M-101,34L-146,164L-97,153Z" fill="#f7c717" stroke="#f7c717" stroke-width="1.51"/><path d="M-99,975L-180,1140L-82,1082Z" fill="#ef9016" stroke="#ef9016" stroke-width="1.51"/><path d="M-162,923L-99,975L-74,916Z" fill="#f5a713" stroke="#f5a713" stroke-width="1.51"/><path d="M-116,478L-160,592L-74,549Z" fill="#f6b614" stroke="#f6b614" stroke-width="1.51"/><path d="M-180,1140L-129,1154L-82,1082Z" fill="#ec8418" stroke="#ec8418" stroke-width="1.51"/><path d="M-162,923L-180,1140L-99,975Z" fill="#f29814" stroke="#f29814" stroke-width="1.51"/><path d="M-146,164L-116,478L-89,367Z" fill="#f5ab14" stroke="#f5ab14" stroke-width="1.51"/><path d="M-178,-92L-146,164L-101,34Z" fill="#f6bc16" stroke="#f6bc16" stroke-width="1.51"/><path d="M-146,164L-160,592L-116,478Z" fill="#f4a312" stroke="#f4a312" stroke-width="1.51"/><path d="M-112,655L-160,592L-109,733Z" fill="#f7c417" stroke="#f7c417" stroke-width="1.51"/><path d="M-160,592L-162,923L-109,733Z" fill="#f7be16" stroke="#f7be16" stroke-width="1.51"/><path d="M-178,-92L-160,592L-146,164Z" fill="#f6b615" stroke="#f6b615" stroke-width="1.51"/><path d="M-180,1140L-162,923L-160,592Z" fill="#f5aa13" stroke="#f5aa13" stroke-width="1.51"/><path d="M-178,-92L-180,1140L-160,592Z" fill="#f5b214" stroke="#f5b214" stroke-width="1.51"/></svg>